<svg xmlns="http://www.w3.org/2000/svg" xmlns:xlink="http://www.w3.org/1999/xlink" width="400" height="260" viewBox="0 0 400 260"><rect width="100%" height="100%" fill="#DDDDDD"/><path d="M83.04 134.89L95.14 134.89L95.14 121.89Q95.14 120.04 95.39 117.82L95.39 117.82L83.04 134.89ZM101.06 134.89L106.06 134.89L106.06 138.83Q106.06 139.38 105.70 139.78Q105.34 140.17 104.69 140.17L104.69 140.17L101.06 140.17L101.06 149.88L95.14 149.88L95.14 140.17L78.37 140.17Q77.68 140.17 77.16 139.75Q76.64 139.32 76.50 138.69L76.50 138.69L75.78 135.25L94.62 110.09L101.06 110.09L101.06 134.89ZM137.99 130L137.99 130Q137.99 135.20 136.87 139.03Q135.76 142.87 133.79 145.37Q131.83 147.88 129.15 149.10Q126.47 150.32 123.36 150.32L123.36 150.32Q120.25 150.32 117.60 149.10Q114.94 147.88 112.99 145.37Q111.04 142.87 109.94 139.03Q108.84 135.20 108.84 130L108.84 130Q108.84 124.77 109.94 120.95Q111.04 117.13 112.99 114.63Q114.94 112.13 117.60 110.90Q120.25 109.68 123.36 109.68L123.36 109.68Q126.47 109.68 129.15 110.90Q131.83 112.13 133.79 114.63Q135.76 117.13 136.87 120.95Q137.99 124.77 137.99 130ZM130.97 130L130.97 130Q130.97 125.68 130.34 122.85Q129.71 120.02 128.65 118.34Q127.59 116.66 126.22 115.99Q124.84 115.31 123.36 115.31L123.36 115.31Q121.90 115.31 120.54 115.99Q119.18 116.66 118.13 118.34Q117.09 120.02 116.47 122.85Q115.85 125.68 115.85 130L115.85 130Q115.85 134.32 116.47 137.15Q117.09 139.98 118.13 141.66Q119.18 143.34 120.54 144.01Q121.90 144.69 123.36 144.69L123.36 144.69Q124.84 144.69 126.22 144.01Q127.59 143.34 128.65 141.66Q129.71 139.98 130.34 137.15Q130.97 134.32 130.97 130ZM169.89 130L169.89 130Q169.89 135.20 168.77 139.03Q167.66 142.87 165.69 145.37Q163.73 147.88 161.05 149.10Q158.37 150.32 155.26 150.32L155.26 150.32Q152.15 150.32 149.50 149.10Q146.84 147.88 144.89 145.37Q142.94 142.87 141.84 139.03Q140.74 135.20 140.74 130L140.74 130Q140.74 124.77 141.84 120.95Q142.94 117.13 144.89 114.63Q146.84 112.13 149.50 110.90Q152.15 109.68 155.26 109.68L155.26 109.68Q158.37 109.68 161.05 110.90Q163.73 112.13 165.69 114.63Q167.66 117.13 168.77 120.95Q169.89 124.77 169.89 130ZM162.88 130L162.88 130Q162.88 125.68 162.24 122.85Q161.61 120.02 160.55 118.34Q159.49 116.66 158.12 115.99Q156.74 115.31 155.26 115.31L155.26 115.31Q153.80 115.31 152.44 115.99Q151.08 116.66 150.03 118.34Q148.99 120.02 148.37 122.85Q147.75 125.68 147.75 130L147.75 130Q147.75 134.32 148.37 137.15Q148.99 139.98 150.03 141.66Q151.08 143.34 152.44 144.01Q153.80 144.69 155.26 144.69L155.26 144.69Q156.74 144.69 158.12 144.01Q159.49 143.34 160.55 141.66Q161.61 139.98 162.24 137.15Q162.88 134.32 162.88 130ZM213.56 140.78L209.96 144.33L200.63 135.00L191.23 144.38L187.63 140.83L197.03 131.40L188.07 122.44L191.64 118.86L200.61 127.83L209.52 118.92L213.15 122.49L204.21 131.43L213.56 140.78ZM246.67 143.56L256.87 143.56Q257.97 143.56 258.62 144.18Q259.26 144.79 259.26 145.81L259.26 145.81L259.26 149.88L231.98 149.88L231.98 147.63Q231.98 146.94 232.27 146.18Q232.56 145.43 233.19 144.82L233.19 144.82L245.27 132.72Q246.78 131.18 247.97 129.78Q249.17 128.38 249.97 127.00Q250.77 125.63 251.19 124.21Q251.62 122.79 251.62 121.23L251.62 121.23Q251.62 119.80 251.21 118.71Q250.79 117.63 250.04 116.88Q249.28 116.14 248.22 115.77Q247.16 115.40 245.84 115.40L245.84 115.40Q244.63 115.40 243.60 115.74Q242.57 116.08 241.77 116.70Q240.98 117.32 240.43 118.15Q239.88 118.97 239.60 119.96L239.60 119.96Q239.13 121.23 238.39 121.64Q237.65 122.05 236.25 121.83L236.25 121.83L232.67 121.20Q233.08 118.34 234.27 116.18Q235.45 114.02 237.22 112.58Q239.00 111.13 241.29 110.41Q243.59 109.68 246.23 109.68L246.23 109.68Q248.98 109.68 251.26 110.49Q253.54 111.30 255.17 112.78Q256.79 114.27 257.70 116.36Q258.60 118.45 258.60 121.01L258.60 121.01Q258.60 123.21 257.96 125.08Q257.31 126.95 256.22 128.65Q255.14 130.36 253.68 131.95Q252.22 133.55 250.63 135.20L250.63 135.20L241.66 144.35Q242.96 143.97 244.23 143.76Q245.51 143.56 246.67 143.56L246.67 143.56ZM287.94 110.12L276.15 124.55L274.77 126.26Q275.93 125.68 277.26 125.37Q278.60 125.05 280.13 125.05L280.13 125.05Q282.39 125.05 284.52 125.79Q286.65 126.53 288.28 128.03Q289.90 129.53 290.89 131.76Q291.88 133.99 291.88 136.96L291.88 136.96Q291.88 139.73 290.86 142.17Q289.84 144.60 288 146.42Q286.16 148.23 283.56 149.28Q280.96 150.32 277.83 150.32L277.83 150.32Q274.63 150.32 272.11 149.31Q269.58 148.29 267.79 146.46Q266 144.63 265.05 142.06Q264.10 139.49 264.10 136.35L264.10 136.35Q264.10 133.55 265.24 130.59Q266.38 127.63 268.78 124.44L268.78 124.44L278.27 111.71Q278.76 111.05 279.71 110.58Q280.66 110.12 281.90 110.12L281.90 110.12L287.94 110.12ZM277.69 144.77L277.69 144.77Q279.31 144.77 280.67 144.22Q282.03 143.67 283.01 142.68Q283.99 141.69 284.54 140.35Q285.09 139.02 285.09 137.45L285.09 137.45Q285.09 135.75 284.56 134.39Q284.04 133.02 283.08 132.08Q282.12 131.13 280.77 130.63Q279.42 130.14 277.80 130.14L277.80 130.14Q276.18 130.14 274.86 130.69Q273.54 131.24 272.60 132.21Q271.67 133.19 271.14 134.52Q270.62 135.86 270.62 137.40L270.62 137.40Q270.62 139.05 271.07 140.41Q271.53 141.77 272.42 142.73Q273.31 143.69 274.63 144.23Q275.96 144.77 277.69 144.77ZM324.22 130L324.22 130Q324.22 135.20 323.10 139.03Q321.99 142.87 320.02 145.37Q318.06 147.88 315.38 149.10Q312.69 150.32 309.59 150.32L309.59 150.32Q306.48 150.32 303.83 149.10Q301.17 147.88 299.22 145.37Q297.27 142.87 296.17 139.03Q295.07 135.20 295.07 130L295.07 130Q295.07 124.77 296.17 120.95Q297.27 117.13 299.22 114.63Q301.17 112.13 303.83 110.90Q306.48 109.68 309.59 109.68L309.59 109.68Q312.69 109.68 315.38 110.90Q318.06 112.13 320.02 114.63Q321.99 117.13 323.10 120.95Q324.22 124.77 324.22 130ZM317.20 130L317.20 130Q317.20 125.68 316.57 122.85Q315.94 120.02 314.88 118.34Q313.82 116.66 312.45 115.99Q311.07 115.31 309.59 115.31L309.59 115.31Q308.13 115.31 306.77 115.99Q305.41 116.66 304.36 118.34Q303.32 120.02 302.70 122.85Q302.08 125.68 302.08 130L302.08 130Q302.08 134.32 302.70 137.15Q303.32 139.98 304.36 141.66Q305.41 143.34 306.77 144.01Q308.13 144.69 309.59 144.69L309.59 144.69Q311.07 144.69 312.45 144.01Q313.82 143.34 314.88 141.66Q315.94 139.98 316.57 137.15Q317.20 134.32 317.20 130Z" fill="#999999"/></svg>